<?xml version="1.0" encoding="UTF-8"?>
<svg version="1.1" xmlns="http://www.w3.org/2000/svg" width="60" height="60">
<path d="M0 0 C1.59134766 0.07347656 1.59134766 0.07347656 3.21484375 0.1484375 C4.81005859 0.19871094 4.81005859 0.19871094 6.4375 0.25 C9.15234375 0.5234375 9.15234375 0.5234375 11.15234375 1.5234375 C11.15234375 3.1734375 11.15234375 4.8234375 11.15234375 6.5234375 C13.62734375 7.0184375 13.62734375 7.0184375 16.15234375 7.5234375 C16.89484375 6.5540625 17.63734375 5.5846875 18.40234375 4.5859375 C20.46979672 1.88676279 21.7676923 0.98708838 25.15234375 0.5234375 C27.56813435 0.45511763 29.98569088 0.43856108 32.40234375 0.4609375 C34.29726562 0.47447266 34.29726562 0.47447266 36.23046875 0.48828125 C37.1946875 0.49988281 38.15890625 0.51148438 39.15234375 0.5234375 C40.015625 2.1640625 40.015625 2.1640625 40.15234375 4.5234375 C37.7853114 7.15765474 35.30814437 9.43104939 32.64257812 11.75 C28.34160061 15.7169709 27.13349002 18.74904802 26.15234375 24.5234375 C28.13234375 24.5234375 30.11234375 24.5234375 32.15234375 24.5234375 C31.72087134 27.0259775 31.50603314 28.22416187 29.52734375 29.8984375 C29.07359375 30.4346875 28.61984375 30.9709375 28.15234375 31.5234375 C28.38517524 34.67265659 28.38517524 34.67265659 29.15234375 37.5234375 C27.17234375 38.0184375 27.17234375 38.0184375 25.15234375 38.5234375 C25.52488281 39.19890625 25.89742187 39.874375 26.28125 40.5703125 C26.75433594 41.46234375 27.22742187 42.354375 27.71484375 43.2734375 C28.19050781 44.15515625 28.66617188 45.036875 29.15625 45.9453125 C30.23232561 48.73044938 30.21763123 49.79323964 29.15234375 52.5234375 C27.06929837 52.57762076 24.98584607 52.61631301 22.90234375 52.6484375 C21.7421875 52.67164063 20.58203125 52.69484375 19.38671875 52.71875 C16.27501579 52.53084523 14.65399224 52.33018363 12.15234375 50.5234375 C10.78976349 48.27619693 10.0718831 46.00619374 9.15234375 43.5234375 C8.16234375 45.9984375 8.16234375 45.9984375 7.15234375 48.5234375 C5.50234375 47.8634375 3.85234375 47.2034375 2.15234375 46.5234375 C2.15234375 48.5034375 2.15234375 50.4834375 2.15234375 52.5234375 C-3.45765625 52.5234375 -9.06765625 52.5234375 -14.84765625 52.5234375 C-14.24454004 43.57721375 -12.41893434 34.97799791 -10.51904297 26.2355957 C-9.97062703 23.70156118 -9.43807856 21.16451415 -8.90625 18.62695312 C-8.55694556 17.00239832 -8.20671763 15.37804175 -7.85546875 13.75390625 C-7.62091476 12.62567696 -7.62091476 12.62567696 -7.38162231 11.47465515 C-5.04750994 0.92780018 -5.04750994 0.92780018 0 0 Z M-0.84765625 3.5234375 C-3.06358586 8.35070568 -4.59645834 13.0040324 -5.671875 18.21484375 C-5.82300247 18.92317856 -5.97412994 19.63151337 -6.12983704 20.36131287 C-6.4449829 21.84714677 -6.756561 23.33374154 -7.06469727 24.82104492 C-7.53504823 27.08541747 -8.01962361 29.34641332 -8.50585938 31.60742188 C-8.81204973 33.0597165 -9.11741653 34.51218506 -9.421875 35.96484375 C-9.56558029 36.63375137 -9.70928558 37.302659 -9.85734558 37.99183655 C-10.6562729 41.89661736 -10.98806069 45.54095217 -10.84765625 49.5234375 C-7.54765625 49.5234375 -4.24765625 49.5234375 -0.84765625 49.5234375 C-0.70070313 48.65460937 -0.55375 47.78578125 -0.40234375 46.890625 C1.02503522 39.55685027 2.0837062 35.07491567 8.15234375 30.5234375 C9.14234375 30.1934375 10.13234375 29.8634375 11.15234375 29.5234375 C10.62640625 30.3896875 10.62640625 30.3896875 10.08984375 31.2734375 C8.93497225 34.04512909 9.2144019 34.70961196 10.15234375 37.5234375 C11.13507508 39.62501253 12.15938389 41.70743097 13.21484375 43.7734375 C13.76269531 44.85109375 14.31054688 45.92875 14.875 47.0390625 C15.29652344 47.85890625 15.71804687 48.67875 16.15234375 49.5234375 C19.45234375 49.5234375 22.75234375 49.5234375 26.15234375 49.5234375 C25.12034608 46.01574329 23.8574576 42.82747671 22.13671875 39.61328125 C21.77320313 38.93330078 21.4096875 38.25332031 21.03515625 37.55273438 C20.27474788 36.14860098 19.50373058 34.75016534 18.72265625 33.35742188 C16.03651018 28.27017042 16.03651018 28.27017042 16.5546875 24.9296875 C18.72490237 21.66109982 21.24168763 18.90129238 23.96484375 16.0859375 C25.0144509 14.98443383 26.06264009 13.8815772 27.109375 12.77734375 C27.61678223 12.24254395 28.12418945 11.70774414 28.64697266 11.15673828 C30.91788191 8.69284226 33.03417197 6.11927464 35.15234375 3.5234375 C31.85234375 3.5234375 28.55234375 3.5234375 25.15234375 3.5234375 C25.64734375 5.5034375 25.64734375 5.5034375 26.15234375 7.5234375 C23.61417766 10.55513589 21.92725464 12.26513387 18.15234375 13.5234375 C18.48234375 12.2034375 18.81234375 10.8834375 19.15234375 9.5234375 C18.43691406 10.23886719 17.72148438 10.95429688 16.984375 11.69140625 C12.70703125 15.96875 8.4296875 20.24609375 4.15234375 24.5234375 C3.82234375 23.5334375 3.49234375 22.5434375 3.15234375 21.5234375 C3.81234375 20.5334375 4.47234375 19.5434375 5.15234375 18.5234375 C5.76409355 15.95577204 6.3029791 13.42800148 6.77734375 10.8359375 C6.91140625 10.13404297 7.04546875 9.43214844 7.18359375 8.70898438 C7.51261545 6.98162044 7.83329687 5.25267159 8.15234375 3.5234375 C5.18234375 3.5234375 2.21234375 3.5234375 -0.84765625 3.5234375 Z " fill="#000000" transform="translate(17.84765625,3.4765625)"/>
</svg>
